Coordinates
version=1
nRows=13
nColumns=40
inDegrees=yes

Units are S.I. units (second, meters, Newtons, ...)
Angles are in degrees.

endheader
time	pelvis_tilt	pelvis_list	pelvis_rotation	pelvis_tx	pelvis_ty	pelvis_tz	hip_flexion_r	hip_adduction_r	hip_rotation_r	knee_angle_r	knee_angle_r_beta	ankle_angle_r	subtalar_angle_r	mtp_angle_r	hip_flexion_l	hip_adduction_l	hip_rotation_l	knee_angle_l	knee_angle_l_beta	ankle_angle_l	subtalar_angle_l	mtp_angle_l	lumbar_extension	lumbar_bending	lumbar_rotation	arm_flex_r	arm_add_r	arm_rot_r	elbow_flex_r	pro_sup_r	wrist_flex_r	wrist_dev_r	arm_flex_l	arm_add_l	arm_rot_l	elbow_flex_l	pro_sup_l	wrist_flex_l	wrist_dev_l
     46.80250000	     -7.01461183	     -3.85236109	     12.31207669	      0.90172398	      0.91499863	      0.48839197	      0.00442815	      0.38027660	    -14.53015535	     19.12303027	     19.12303027	     18.36149243	     -4.01150146	     -3.89885006	     28.99062189	     -1.58650857	     10.59646386	     27.82077115	     27.82077115	      8.81576299	    -11.37735570	      5.06188994	     -8.04997298	      1.67944702	      6.06742345	     57.70403106	    -11.02064983	      8.31718355	     89.28725843	     44.35735904	      0.00000000	      0.00000000	    -12.83588927	     -9.61856234	     23.05270892	     27.75752972	     43.56251997	      0.00000000	      0.00000000
     46.82514286	     -7.15761089	     -3.85363065	     11.86779204	      0.90375519	      0.91537874	      0.48403329	     -0.36975322	      0.02963046	    -14.58158062	     18.98881047	     18.98881047	     17.98235732	     -3.32518759	     -4.29009708	     28.68131387	     -1.43989146	     10.40896363	     28.07322810	     28.07322810	      9.47217260	    -11.70011219	      5.33285787	     -7.89849648	      1.67781003	      6.18871840	     57.52019802	    -11.15152230	      8.28746783	     87.99428960	     44.41484365	      0.00000000	      0.00000000	    -12.30034476	     -9.87852138	     23.14581999	     27.86030991	     43.58099279	      0.00000000	      0.00000000
     46.84778571	     -7.29500018	     -3.82650823	     11.43114820	      0.90563776	      0.91571022	      0.47969622	     -0.67554334	     -0.36041118	    -14.61081579	     18.97303214	     18.97303214	     17.58667093	     -2.79442003	     -4.71187643	     28.35650590	     -1.27816908	     10.14638027	     28.28984912	     28.28984912	     10.10518912	    -11.94774135	      5.56376604	     -7.76532981	      1.68363218	      6.28488066	     57.18451950	    -11.25808149	      8.20178424	     86.43043968	     44.48069582	      0.00000000	      0.00000000	    -11.74120701	    -10.14576004	     23.21638368	     27.97638599	     43.60176909	      0.00000000	      0.00000000
     46.87042857	     -7.42403334	     -3.79352689	     11.00944626	      0.90741600	      0.91597454	      0.47538102	     -0.88895810	     -0.78054222	    -14.66325933	     19.12367065	     19.12367065	     17.13642920	     -2.37829610	     -5.26703740	     28.01348793	     -1.11633993	      9.84807251	     28.46885062	     28.46885062	     10.76002607	    -12.13175565	      5.80454093	     -7.61489459	      1.71091011	      6.35497700	     56.76734912	    -11.27319471	      8.00290234	     84.49363725	     44.56290010	      0.00000000	      0.00000000	    -11.12177237	    -10.41491781	     23.28008344	     28.13893116	     43.62756816	      0.00000000	      0.00000000
     46.89307143	     -7.49772046	     -3.76499892	     10.58961305	      0.90912813	      0.91621628	      0.47109622	     -1.08135792	     -1.18727532	    -14.58022389	     19.38645499	     19.38645499	     16.68163941	     -2.12722671	     -6.22291895	     27.64633282	     -0.96810745	      9.53786891	     28.70552197	     28.70552197	     11.43364275	    -12.30220094	      6.17818082	     -7.50053674	      1.78871085	      6.05883964	     56.20095827	    -10.95861643	      7.65472734	     82.09138127	     44.67129735	      0.00000000	      0.00000000	    -10.67799994	    -10.63417343	     23.38990203	     28.32515518	     43.66090916	      0.00000000	      0.00000000
     46.91571429	     -7.57710606	     -3.68855684	     10.15357715	      0.91080536	      0.91649674	      0.46688622	     -1.11349540	     -1.67223343	    -14.40076186	     19.92945547	     19.92945547	     16.30862249	     -2.05739246	     -6.68769316	     27.18778466	     -0.79280936	      9.18967599	     28.75815587	     28.75815587	     11.94324643	    -12.44251618	      6.20561409	     -7.39225701	      1.81280105	      6.20623373	     55.08750620	    -11.29322429	      7.39970930	     80.35351372	     44.73982490	      0.00000000	      0.00000000	    -10.00216735	    -10.89481276	     23.29906423	     28.64030998	     43.70160348	      0.00000000	      0.00000000
     46.93835714	     -7.46620559	     -3.74503717	      9.77593477	      0.91256193	      0.91691390	      0.46269164	     -1.28220358	     -1.97901661	    -14.21176358	     20.54156951	     20.54156951	     15.97837454	     -2.01478502	     -6.88298977	     26.60796133	     -0.74638283	      8.96814048	     28.91020002	     28.91020002	     12.42465810	    -12.67691867	      6.09890539	     -7.50717970	      2.08811244	      6.00690461	     53.58159673	    -11.34444770	      7.42578328	     79.35611503	     44.76731736	      0.00000000	      0.00000000	     -9.36166863	    -11.05575503	     23.22830240	     28.85902467	     43.72568791	      0.00000000	      0.00000000
     46.96100000	     -7.55931866	     -3.58991468	      9.29328714	      0.91404834	      0.91706865	      0.45855141	     -0.95996576	     -2.66917493	    -13.95956759	     21.60520738	     21.60520738	     14.89326986	     -2.37490885	     -9.56046655	     26.17106908	     -0.47362179	      8.58874382	     28.98843691	     28.98843691	     13.06765566	    -12.89418621	      6.66540259	     -7.21326830	      2.07794677	      5.75542011	     52.82516021	    -10.40016028	      5.67970936	     73.69900886	     45.02911720	      0.00000000	      0.00000000	     -8.82673880	    -11.29004470	     23.13046452	     29.25830387	     43.81225913	      0.00000000	      0.00000000
     46.98364286	     -7.51792338	     -3.47210678	      8.80195717	      0.91560603	      0.91732726	      0.45446385	     -0.51172243	     -3.33656431	    -13.54281647	     23.18655304	     23.18655304	     14.38893674	     -2.71871058	    -10.42360953	     25.58808547	     -0.27313795	      8.17574582	     29.03286067	     29.03286067	     13.51440516	    -13.12243925	      6.64566485	     -7.21059562	      2.16111409	      5.99879477	     50.84615340	    -10.97713320	      5.51160170	     71.73790662	     45.09519980	      0.00000000	      0.00000000	     -7.95050333	    -11.47420365	     22.89215334	     29.74814759	     43.87468414	      0.00000000	      0.00000000
     47.00628571	     -7.37877577	     -3.41484335	      8.32621883	      0.91719806	      0.91766169	      0.45039383	     -0.12998320	     -3.89368711	    -12.94911474	     24.64245677	     24.64245677	     12.68538735	     -3.88622883	    -14.13141266	     24.95859838	     -0.08590064	      7.94560644	     29.17783910	     29.17783910	     14.08358436	    -13.54749250	      7.10567217	     -7.18355980	      2.38009373	      5.61970696	     49.45176813	    -10.12487981	      4.13979800	     66.69035076	     45.31546003	      0.00000000	      0.00000000	     -7.31027776	    -11.55634745	     22.42297846	     30.14483454	     44.02345189	      0.00000000	      0.00000000
     47.02892857	     -7.25758497	     -3.27938764	      7.79702214	      0.91870131	      0.91783387	      0.44635114	      0.72974638	     -4.69234097	    -12.35586105	     27.05249625	     27.05249625	     11.93459040	     -4.41245863	    -15.17591030	     24.33365304	      0.15107073	      7.55381541	     29.28383688	     29.28383688	     14.49823295	    -13.88695634	      7.07001493	     -7.25908848	      2.52150386	      5.84258320	     46.93336125	    -10.71811717	      4.02020016	     64.55153970	     45.38169449	      0.00000000	      0.00000000	     -6.27744095	    -11.64401649	     22.14237231	     30.63701173	     44.09109392	      0.00000000	      0.00000000
     47.05157143	     -7.04271323	     -3.23185901	      7.28712235	      0.92022435	      0.91799717	      0.44235350	      1.53095415	     -5.28730290	    -11.45010084	     29.27704773	     29.27704773	      9.62373888	     -6.37705880	    -19.61043162	     23.68814665	      0.36060662	      7.36807370	     29.52453397	     29.52453397	     15.07108113	    -14.47681080	      7.58112163	     -7.27977479	      2.83288531	      5.51297298	     45.32821514	     -9.94044900	      2.51004168	     58.61043389	     45.62989811	      0.00000000	      0.00000000	     -5.34637647	    -11.55331024	     21.46443156	     30.75710921	     44.26873592	      0.00000000	      0.00000000
     47.07421429	     -6.81801674	     -3.14622978	      6.74562699	      0.92164148	      0.91793354	      0.43836385	      2.69786725	     -6.00553683	    -10.50679368	     32.22681495	     32.22681495	      7.81423026	     -7.91678663	    -22.15230195	     23.07047615	      0.60508827	      7.11380580	     29.82004651	     29.82004651	     15.62425096	    -15.01820298	      7.91953053	     -7.39537747	      3.12292183	      5.46809913	     43.05792033	     -9.93359483	      1.68230576	     54.30984878	     45.78748285	      0.00000000	      0.00000000	     -4.23236739	    -11.44963167	     20.67922920	     31.11044882	     44.45127398	      0.00000000	      0.00000000
